<?xml version="1.0" encoding="UTF-8"?>
<svg id="Warstwa_1" data-name="Warstwa 1" xmlns="http://www.w3.org/2000/svg" viewBox="0 0 210 84.75">
  <defs>
    <style>
      .cls-1 {
        fill: #fe0202;
      }
    </style>
  </defs>
  <path class="cls-1" d="m157.72,29.44c3.86.22,7.75-.04,11.41.76,6.9,1.5,13.78,3.34,19.48,7.89.91.73,1.61.82,2.45-.07,1.88-1.99,3.7-4.07,5.79-5.83.66-.56,2.15-.46,3.12-.19.44.12.75,1.4.78,2.17.25,6.39.37,12.78.64,19.16.15,3.73.31,7.49.8,11.19.64,4.8,1.6,9.55,2.47,14.32.14.78.04.97-.74.74-.35-.1-.74-.06-1.11-.07-2.83-.09-3.29-.56-3.45-3.42-.39-7.02-.75-14.04-1.27-21.06-.03-.44-1.31-.8-2.04-1.13-.05-.02-.51.59-.57.94-.81,4.67-3.25,8.12-7.44,10.47-4.03,2.26-7.83,4.93-11.92,7.04-2.36,1.22-5.07,1.83-7.68,2.5-3.88.99-7.77,2.04-11.72,2.6-4.22.6-8.52.67-12.79.91-.19.01-.6-.52-.59-.79.16-3.32.38-6.64.59-9.96.09-1.4.23-2.81.26-4.21,0-.25-.38-.52-.58-.77-.21.26-.57.5-.6.77-.38,3.56-.77,7.12-1.04,10.69-.1,1.28-.74,1.4-1.77,1.36-1.17-.04-.86-.79-.81-1.44.41-5.3.73-10.61,1.33-15.9.14-1.29-.38-1.44-1.2-1.69-4.55-1.35-9.11-2.69-13.66-4.03-.12-.03-.27-.02-.36-.09-2.09-1.43-3.64-.48-5.3.95-1.75,1.52-3.74,2.76-5.64,4.11-.27.19-.63.41-.92.38-.64-.07-1.27-.29-1.91-.45.39-.39.75-.84,1.19-1.16,4.65-3.41,9.33-6.79,13.98-10.2,3.88-2.85,7.76-5.69,11.57-8.62,1.84-1.41,3.5-3.05,5.28-4.54.39-.33.95-.45,1.44-.67.2.46.58.92.57,1.38-.01,3.46-.08,6.93-.17,10.39-.02.72-.28,1.44-.34,2.16-.02.26.25.54.38.81.2-.26.53-.5.57-.78.39-2.83.76-5.66,1.06-8.49.21-2.02.26-4.06.49-6.08.05-.46.56-1.19.93-1.23,3.02-.37,6.05-.6,9.04-.87Zm-7.46,38.18s-.1,0-.15,0c0,2.26.03,4.52-.02,6.77-.02.76.21,1.01.95.89,4.4-.75,8.82-1.41,13.21-2.25,5.35-1.03,10.5-2.76,15.4-5.13,4.32-2.09,8.3-4.71,11.05-8.69,1.09-1.57,1.48-3.63,2.11-5.49.09-.27-.2-.96-.43-1.02-3.13-.78-6.28-1.51-9.43-2.19-.37-.08-.94.01-1.19.26-2.79,2.68-5.57,5.37-8.28,8.14-1.55,1.58-2.36,1.88-4.39,1.06-.16-.06-.29-.7-.18-.8,3.57-3.34,7.18-6.65,10.76-9.98,1.09-1.01,2.13-2.07,3.15-3.13,1.8-1.87,3.59-3.75,5.34-5.66.11-.12-.05-.7-.24-.82-4.92-3.09-10.29-4.96-16-6.03-6.17-1.15-12.37-1.73-18.64-1.6-.33,0-.9.19-.95.39-.27,1.09-.49,2.21-.58,3.33-.29,3.86-.58,7.71-.75,11.57-.3,6.79-.51,13.59-.75,20.39Zm-7.57-30.32c-.28,0-.72-.14-.93.02-1.28,1.02-2.44,2.19-3.76,3.15-4.12,2.97-8.3,5.86-12.45,8.79-.15.11-.23.33-.34.5.16.08.31.17.47.22,2.59.76,5.18,1.49,7.77,2.27,2.38.72,4.73,1.5,7.11,2.2.25.07.85-.2.87-.37.13-.91.13-1.84.17-2.77.09-2.4.11-4.8.28-7.19.16-2.17.49-4.33.79-6.82Zm50.76,10.56l.37-.15c-.7-1.51-1.3-3.08-2.12-4.51-.54-.93-1.38-.87-2.14-.02-1.7,1.88-3.41,3.74-5.17,5.56-.57.59-.44.76.27.9,2.31.47,4.62.92,6.91,1.48,1.83.44,1.8.5,1.76-1.41-.01-.61.08-1.23.13-1.85Zm4.41-.62c.06,0,.11,0,.17,0-.21-2.71-.4-5.42-.66-8.13-.07-.79-.32-1.56-.54-2.32-.03-.1-.44-.23-.52-.16-1.31,1.12-2.62,2.24-3.88,3.42-.16.15-.14.8.03.94,2.37,1.94,3.26,4.5,3.29,7.45,0,1.05-.13,2.13.08,3.14.08.37.98.59,1.53.8.07.03.46-.45.47-.7.05-1.48.02-2.96.02-4.45Zm-52.48,5.52s-.05,0-.08,0c.02-.27.08-.56.03-.82-.04-.2-.22-.38-.34-.57-.18.18-.47.33-.52.54-.2.9-.36,1.81-.45,2.73-.03.3.21.62.33.93.28-.23.73-.42.8-.71.17-.67.15-1.39.21-2.09Zm-.8-3.71c.26.51.45.88.63,1.25.22-.45.55-.87.62-1.34.04-.3-.29-.66-.46-1-.25.34-.5.69-.79,1.09Z"/>
  <path class="cls-1" d="m101.51,7.04c-.61,6.52-1.25,13.05-1.83,19.57-.21,2.28-.24,4.57-.46,6.85-.44,4.48-.82,8.98-1.53,13.43-.3,1.86.32,1.52,1.39,1.06,3.21-1.38,6.39-2.84,9.62-4.16,2.09-.85,4.3-1.4,6.38-2.29,3.38-1.44,6.7-3.04,10.04-4.57.2-.09.41-.25.6-.24.51.03,1.02.14,1.53.22-.27.36-.47.88-.83,1.07-3.46,1.73-6.92,3.45-10.43,5.06-4.16,1.91-8.36,3.74-12.57,5.52-1.36.58-2.84.88-4.26,1.33-.23.07-.43.2-.65.31.15.21.26.49.46.63,3.78,2.6,7.64,5.1,11.35,7.79,5.71,4.15,11.32,8.43,16.96,12.68.14.1.06.48.09.73-.74,0-1.68.31-2.17-.03-2.22-1.53-4.28-3.29-6.47-4.87-4.38-3.15-8.81-6.23-13.21-9.34-2.56-1.81-5.13-3.61-7.67-5.44-.63-.45-.91-.4-.98.39-.24,2.83-.49,5.67-.74,8.5-.29,3.39-.61,6.78-.85,10.17-.07,1.04.03,2.1.13,3.15.13,1.33-.82,2.35-2.17,2.25-1.12-.09-2.23-.18-3.35-.25-.98-.07-1.46-.45-1.25-1.54.71-3.57,1.33-7.16,2.04-10.73,1.36-6.84,2.79-13.66,4.11-20.51.66-3.45,1.13-6.94,1.68-10.42.03-.19-.05-.4-.08-.61-.16.14-.39.26-.49.44-.86,1.67-1.61,3.41-2.56,5.02-2.82,4.82-5.7,9.6-8.59,14.37-.48.79-.33,1.05.54,1.31,1.48.44,2.95.97,4.36,1.6.5.22.81.85,1.2,1.29-.75.23-1.62.81-2.21.6-1.42-.5-2.69-1.39-4.03-2.11-.9-.48-1.4-.63-2.04.66-1.13,2.28-2.7,4.37-4.19,6.45-1.63,2.28-3.41,4.46-5.08,6.71-.1.14.07.53.18.77.31.74.31,1.36-.7,1.31-1.49-.07-2.15.9-2.73,1.99-.51.96-2.92,1.51-3.71.75-.13-.12-.04-.63.11-.84,1.14-1.56,2.32-3.08,3.48-4.63.09-.12.15-.38.08-.5-.65-1.1-1.37-2.17-2.01-3.29-.59-1.03-1.1-2.1-1.64-3.16-.12-.25-.16-.54-.3-.77-2.18-3.44-4.41-6.85-6.55-10.32-.57-.93-.84-2.04-1.28-3.05-1.32-3.01-2.66-6.02-4-9.02-.62-1.39-1.27-2.77-1.9-4.15-.05-.11-.1-.23-.16-.33-.34-.55-.68-1.09-1.01-1.64.81-.42,1.58-.97,2.44-1.26,5.08-1.7,10.32-2.18,15.64-1.94,2.78.13,4.84,1.37,6.35,3.86.7,1.15,2.28,1.82,3.52,2.6,2.73,1.71,5.53,3.33,8.25,5.06.78.5,1.19.33,1.55-.37,1.28-2.49,2.55-4.99,3.82-7.49.41-.8.77-1.62,1.22-2.4.6-1.05,1.4-1.35,2.45-.55.09.07.41-.03.5-.15.1-.12.06-.35.08-.54.68-8.58,1.36-17.15,2.08-25.73.02-.27.63-.76.76-.71.59.27,1.47.63,1.58,1.1.24,1.06.07,2.21.07,3.33.02,0,.04,0,.06,0Zm-27.57,28.65c-.49-.88-.73-1.9-1.37-2.34-2.37-1.64-4.81-3.21-7.99-2.51-1.54.34-3.15.37-4.7.7-1.68.36-3.32.87-4.96,1.38-.21.07-.49.61-.42.8.63,1.51,1.32,2.99,2.02,4.46.95,2.01,1.87,4.04,2.94,5.98.23.42,1.14.76,1.67.67,4.57-.73,8.09-3.31,11.18-6.56.65-.69,1.04-1.63,1.62-2.58Zm-8.44,9.99c-1.36.31-2.51.57-3.65.83-.97.22-1.13.69-.64,1.58,2.44,4.38,4.84,8.79,7.24,13.19.76,1.4,1.45,2.84,2.27,4.2.15.25,1.05.39,1.22.22.73-.77,1.37-1.65,1.96-2.54,1.89-2.86,3.64-5.81,5.67-8.57.76-1.03.36-1.14-.41-1.54-3.58-1.89-7.14-3.82-10.7-5.73-1.03-.55-2.05-1.13-2.96-1.62Zm22.01-3.35c-.31-.23-.6-.49-.94-.69-3.24-1.87-6.49-3.74-9.75-5.56-.14-.08-.67.18-.74.38-.74,2.13-1.82,3.98-3.88,5.11-1.47.81-2.93,1.62-4.37,2.47-.1.06-.08.6.03.66,2.31,1.3,4.63,2.57,6.96,3.83,1.88,1.01,3.76,2.02,5.66,2.98.23.11.73,0,.92-.18.64-.66,1.27-1.37,1.78-2.13,1.43-2.16,2.8-4.35,4.19-6.53.05-.07.07-.16.14-.33Z"/>
  <path class="cls-1" d="m14.21,76.52c-3.11.15-6.21.3-9.32.47-.88.05-1.17-.28-.84-1.09.74-1.77,1.56-3.52,2.2-5.32.26-.74,0-1.66.26-2.4.87-2.54,1.89-5.03,2.81-7.55.97-2.66,1.97-5.32,2.83-8.02,1.26-3.96,2.35-7.97,3.63-11.92.69-2.11,1.95-4.07,2.37-6.21.36-1.85,1.34-2.03,2.78-2.18,6.26-.64,12.37.05,18.23,2.3,2.23.86,3.15,3.05,3.24,5.35.06,1.65-.91,2.89-2.51,3.56-2.6,1.08-5.19,2.19-7.79,3.3-.12.05-.22.14-.33.21.13.07.26.17.4.2,2.02.38,4.04.75,6.06,1.11.3.06.64.04.91.16,1.39.62,2.15.53,2.45-1.29.17-1.02,1.29-1.87,1.88-2.86,1.4-2.35,2.8-4.71,4.09-7.12.56-1.04.8-2.24,1.32-3.31.21-.44.75-.91,1.2-.97.3-.04.84.53,1.04.94,1.11,2.35,2.21,4.71,3.19,7.12.93,2.28,1.64,4.64,2.55,6.92,2.8,7.08,5.66,14.15,8.48,21.22.42,1.05.29,2-.88,2.46-1.19.47-1.56-.36-1.9-1.29-.69-1.87-1.49-3.71-2.16-5.59-1.16-3.26-2.22-6.55-3.39-9.8-.63-1.74-1.37-3.44-2.13-5.12-.1-.23-.64-.38-.97-.36-1.19.06-2.38.27-3.58.32-.86.03-1.73-.15-2.59-.15-1.29,0-2.59.07-3.88.14-.19.01-.36.2-.54.3.16.17.29.37.48.51,1.61,1.19,3.42,2.18,4.82,3.59,2.32,2.33,4.62,4.8,4.52,8.45-.02.67-.34,1.33-.46,2.01-.56,3.17-2.63,4.65-5.59,5.55-3.44,1.05-6.68,2.72-10.13,3.7-2.6.74-5.39.83-8.09,1.2-3.38.47-6.76,1-10.15,1.39-1.47.17-2.98.03-4.47.03,0,.02,0,.04,0,.06Zm14.23-27.82c-3.59.21-6.1.31-8.61.53-1.35.12-1.92,1.24-1.46,2.5.05.14-.13.39-.25.55-.16.21-.5.35-.54.56-.3,1.41-.51,2.83-.8,4.24-.14.71-.34,1.42-.56,2.11-.78,2.44-1.63,4.86-2.34,7.32-.46,1.6-.59,3.3-1.11,4.87-.41,1.25.09,1.53,1.1,1.46,3.84-.26,7.7-.44,11.52-.9,3.12-.37,6.23-.97,9.28-1.71,3.57-.87,7.1-1.93,10.59-3.08,1.04-.34,2.02-1.14,2.81-1.94.7-.71,1.39-1.67,1.55-2.61.24-1.41.02-2.89-.04-4.34-.01-.34-.08-.78-.29-.98-.92-.87-1.89-1.68-2.88-2.48-1.07-.86-2.11-1.82-3.31-2.45-.93-.48-1.9-.29-2.01,1.15-.03.42-.38.82-.62,1.21-.52.87-1.3,1.67-1.55,2.6-.34,1.28-1.25,1.36-2.17,1.39-.69.02-1.21-.23-.67-1.21,1.03-1.85,1.9-3.8,2.74-5.75.11-.26-.28-1.07-.55-1.12-3.59-.76-7.2-1.43-9.83-1.93Zm-6.53-2.05c1.92-.32,3.87-.52,5.77-.97,3.72-.88,7.72-.94,10.8-3.81,1.27-1.19,2.17-2.5,1.6-4.01-.37-.97-1.65-1.83-2.71-2.24-1.45-.57-3.07-.8-4.64-.94-3.42-.3-6.86-.47-10.3-.6-.29-.01-.8.61-.87.99-.16.87.03,1.8-.15,2.65-.47,2.21-1.18,4.37-1.56,6.59-.37,2.17-.24,2.19,2.07,2.34Zm27.99.95s0,.08,0,.12c1.26-.1,2.53-.17,3.78-.34.18-.02.5-.59.42-.77-1.21-2.86-2.47-5.7-3.75-8.54-.15-.33-.49-.59-.74-.87-.27.31-.64.58-.81.93-.71,1.52-1.34,3.07-2.04,4.59-.7,1.52-1.45,3.02-2.18,4.53-.09.18-.19.36-.29.54.23.05.46.17.68.15,1.64-.1,3.28-.22,4.92-.34Z"/>
</svg>